<svg width="32" height="30" viewBox="0 0 32 30" fill="none" xmlns="http://www.w3.org/2000/svg">
<path d="M31.4095 6.63477L31.5296 7.87961V27.5283C31.5309 27.7331 31.4915 27.9362 31.4136 28.1259C31.3357 28.3155 31.2209 28.488 31.0758 28.6333C30.9307 28.7786 30.7581 28.8939 30.568 28.9726C30.3779 29.0513 30.174 29.0918 29.9681 29.0918H2.0019C1.89903 29.107 1.79448 29.107 1.69161 29.0918C1.34449 28.9849 1.04387 28.7644 0.838548 28.4662C0.633229 28.1679 0.535268 27.8093 0.560547 27.4486V6.63477H31.4095Z" fill="#F9F8F9"/>
<path d="M14.2634 6.50586L0.44043 6.67517V27.5886C0.458068 27.9334 0.590648 28.2625 0.817217 28.524C1.04379 28.7855 1.35143 28.9645 1.6916 29.0326V8.24865C1.69413 8.15172 1.73397 8.05946 1.80288 7.99089C1.87179 7.92233 1.96452 7.8827 2.06195 7.88018H31.5296V6.69508L14.2634 6.50586Z" fill="#E8E8E8"/>
<path d="M31.5296 2.52134V6.72395H0.44043V2.52134C0.44043 2.10931 0.604936 1.71415 0.897768 1.4228C1.1906 1.13145 1.58777 0.967773 2.00189 0.967773H29.9681C30.3822 0.967773 30.7794 1.13145 31.0722 1.4228C31.3651 1.71415 31.5296 2.10931 31.5296 2.52134V2.52134Z" fill="#A8A8A8"/>
<path d="M15.6352 5.68866C15.3857 5.68866 15.1464 5.59006 14.9699 5.4145C14.7935 5.23894 14.6943 5.00081 14.6943 4.75254C14.6943 4.50426 14.7935 4.26616 14.9699 4.0906C15.1464 3.91504 15.3857 3.81641 15.6352 3.81641H27.2261C27.4756 3.81641 27.7149 3.91504 27.8914 4.0906C28.0678 4.26616 28.167 4.50426 28.167 4.75254C28.167 5.00081 28.0678 5.23894 27.8914 5.4145C27.7149 5.59006 27.4756 5.68866 27.2261 5.68866H15.6352Z" fill="#767676"/>
<path d="M10.7102 5.68861C10.8967 5.69058 11.0796 5.63736 11.2356 5.53571C11.3917 5.43405 11.5138 5.28857 11.5865 5.1177C11.6593 4.94683 11.6794 4.7583 11.6442 4.57606C11.609 4.39381 11.5202 4.22608 11.3891 4.09416C11.2579 3.96225 11.0902 3.87207 10.9075 3.83513C10.7247 3.7982 10.535 3.81616 10.3625 3.88671C10.19 3.95726 10.0424 4.07723 9.9386 4.23138C9.83476 4.38554 9.77931 4.56691 9.7793 4.75248C9.77928 4.99904 9.87705 5.23568 10.0513 5.41095C10.2256 5.58622 10.4624 5.68599 10.7102 5.68861V5.68861Z" fill="#767676"/>
<path d="M11.3706 5.41994L12.1814 4.61328L11.3506 4.69294L11.3706 5.41994Z" fill="#7ABDE2"/>
<path d="M10.0693 4.07561L10.8601 3.29883L10.6899 3.94614L10.0693 4.07561Z" fill="#7ABDE2"/>
<path d="M6.96628 5.68866C7.15236 5.68866 7.33429 5.63376 7.48901 5.53089C7.64374 5.42803 7.76435 5.28184 7.83556 5.11079C7.90677 4.93973 7.92538 4.7515 7.88908 4.56991C7.85277 4.38831 7.76319 4.22152 7.6316 4.0906C7.50002 3.95968 7.33237 3.87051 7.14986 3.83439C6.96734 3.79827 6.77815 3.81682 6.60623 3.88767C6.4343 3.95852 6.28734 4.07852 6.18396 4.23246C6.08057 4.38641 6.02539 4.56738 6.02539 4.75253C6.02539 5.00081 6.12453 5.23894 6.30098 5.41449C6.47743 5.59005 6.71674 5.68866 6.96628 5.68866V5.68866Z" fill="#767676"/>
<path d="M7.62743 5.4096L8.39817 4.63281L7.60742 4.69256L7.62743 5.4096Z" fill="#7ABDE2"/>
<path d="M6.31543 4.07561L7.09616 3.29883L6.93601 3.94614L6.31543 4.07561Z" fill="#7ABDE2"/>
<path d="M3.21335 5.68866C3.39943 5.68866 3.58136 5.63376 3.73608 5.53089C3.89081 5.42803 4.01142 5.28184 4.08263 5.11079C4.15384 4.93973 4.17245 4.7515 4.13615 4.56991C4.09984 4.38831 4.01026 4.22152 3.87867 4.0906C3.74709 3.95968 3.57944 3.87051 3.39693 3.83439C3.21441 3.79827 3.02522 3.81682 2.8533 3.88767C2.68137 3.95852 2.53441 4.07852 2.43103 4.23246C2.32764 4.38641 2.27246 4.56738 2.27246 4.75253C2.27246 5.00081 2.3716 5.23894 2.54805 5.41449C2.7245 5.59005 2.96381 5.68866 3.21335 5.68866V5.68866Z" fill="#767676"/>
<path d="M3.90405 5.39984L4.70482 4.57324L3.87402 4.66287L3.90405 5.39984Z" fill="#7ABDE2"/>
<path d="M2.5625 4.07503L3.30318 3.32812L3.1931 3.94557L2.5625 4.07503Z" fill="#7ABDE2"/>
<path d="M11.5308 4.87127C11.7173 4.87126 11.8996 4.81611 12.0545 4.7128C12.2095 4.60949 12.33 4.46269 12.401 4.29106C12.4719 4.11942 12.4899 3.93069 12.4528 3.74884C12.4156 3.56698 12.325 3.40019 12.1924 3.26968C12.0599 3.13916 11.8913 3.0508 11.7081 3.01582C11.5249 2.98083 11.3354 3.00078 11.1637 3.07317C10.992 3.14555 10.8457 3.26709 10.7436 3.42234C10.6414 3.57759 10.5879 3.75955 10.5899 3.94511C10.5899 4.06758 10.6143 4.18882 10.6617 4.30185C10.7091 4.41487 10.7786 4.51741 10.8661 4.60355C10.9536 4.68968 11.0574 4.75769 11.1715 4.80365C11.2856 4.8496 11.4077 4.87258 11.5308 4.87127V4.87127Z" fill="#AFEFA5"/>
<path d="M15.0146 4.04474L15.8354 3.24805L15.6452 4.13436L15.0146 4.04474Z" fill="#7ABDE2"/>
<path d="M27.8965 5.39964L28.7173 4.58301L28.0867 4.79213L27.8965 5.39964Z" fill="#7ABDE2"/>
<path d="M7.77685 4.87127C7.96336 4.87126 8.14568 4.81611 8.30062 4.7128C8.45556 4.60949 8.57614 4.46269 8.64705 4.29106C8.71796 4.11942 8.73597 3.93069 8.69885 3.74884C8.66173 3.56698 8.57113 3.40019 8.43854 3.26968C8.30595 3.13916 8.13736 3.0508 7.9542 3.01582C7.77103 2.98083 7.58154 3.00078 7.4098 3.07317C7.23806 3.14555 7.09184 3.26709 6.98967 3.42234C6.8875 3.57759 6.83401 3.75955 6.83599 3.94511C6.83598 4.06758 6.86037 4.18882 6.90777 4.30185C6.95518 4.41487 7.02466 4.51741 7.11216 4.60355C7.19966 4.68968 7.30346 4.75769 7.41756 4.80365C7.53166 4.8496 7.65376 4.87258 7.77685 4.87127V4.87127Z" fill="#FFE07D"/>
<path d="M4.01346 4.87121C4.19953 4.86923 4.38084 4.81241 4.53445 4.70791C4.68806 4.60342 4.80707 4.45596 4.87645 4.28416C4.94582 4.11236 4.96244 3.92395 4.92419 3.74276C4.88595 3.56157 4.79456 3.39573 4.66159 3.26622C4.52861 3.1367 4.36001 3.04931 4.17712 3.01512C3.99424 2.98093 3.80529 3.00148 3.63413 3.07414C3.46298 3.1468 3.31733 3.26832 3.21559 3.42334C3.11385 3.57837 3.06058 3.75992 3.06255 3.94505C3.06386 4.06799 3.08951 4.18947 3.138 4.30255C3.1865 4.41563 3.2569 4.51809 3.3452 4.6041C3.4335 4.6901 3.53795 4.75797 3.65261 4.8038C3.76727 4.84963 3.8899 4.87252 4.01346 4.87121V4.87121Z" fill="#E15F78"/>
<path d="M16.4558 4.87117C16.3247 4.88467 16.1923 4.87067 16.0671 4.83002C15.9418 4.78938 15.8266 4.72302 15.7287 4.63524C15.6309 4.54747 15.5527 4.44023 15.4992 4.32047C15.4457 4.20072 15.418 4.0711 15.418 3.94003C15.418 3.80896 15.4457 3.67937 15.4992 3.55961C15.5527 3.43986 15.6309 3.33262 15.7287 3.24485C15.8266 3.15707 15.9418 3.09071 16.0671 3.05007C16.1923 3.00942 16.3247 2.99538 16.4558 3.00888H28.0466C28.2781 3.03274 28.4926 3.14113 28.6485 3.31311C28.8043 3.48509 28.8906 3.70845 28.8906 3.94003C28.8906 4.17161 28.8043 4.39497 28.6485 4.56695C28.4926 4.73893 28.2781 4.84732 28.0466 4.87117H16.4558Z" fill="#F9F8F9"/>
<path d="M23.3422 27.1291L8.66842 27.0693C8.41889 27.0693 8.17958 26.9707 8.00313 26.7952C7.82668 26.6196 7.72754 26.3815 7.72754 26.1332L7.77757 9.74103C7.77757 9.22318 8.01781 8.64556 8.5383 8.64556H23.4623C23.5854 8.64424 23.7075 8.66723 23.8216 8.71318C23.9357 8.75914 24.0395 8.82715 24.127 8.91328C24.2145 8.99942 24.284 9.10196 24.3314 9.21498C24.3788 9.328 24.4032 9.44925 24.4032 9.57172V26.2527C24.373 26.5063 24.246 26.7386 24.0486 26.9017C23.8511 27.0648 23.5982 27.1462 23.3422 27.1291Z" fill="#C42821"/>
<path d="M8.53834 25.944V8.64556C8.41573 8.64423 8.29407 8.66729 8.18052 8.71337C8.06698 8.75944 7.96385 8.82759 7.87714 8.91386C7.79043 9.00013 7.7219 9.10277 7.67559 9.21574C7.62929 9.32871 7.60614 9.44973 7.60748 9.57172V26.2527C7.60615 26.3752 7.62925 26.4967 7.67544 26.6102C7.72163 26.7237 7.78999 26.827 7.87656 26.9141C7.96313 27.0011 8.06619 27.0702 8.17979 27.1174C8.29339 27.1646 8.41525 27.1888 8.53834 27.1888H23.4623C23.7119 27.1888 23.9512 27.0902 24.1276 26.9147C24.3041 26.7391 24.4032 26.501 24.4032 26.2527H8.88868C8.8447 26.2584 8.8 26.2547 8.7576 26.2417C8.71521 26.2288 8.6761 26.207 8.6429 26.1777C8.6097 26.1484 8.5832 26.1124 8.56516 26.0721C8.54713 26.0318 8.53797 25.9881 8.53834 25.944Z" fill="#A7241E"/>
<path d="M22.2104 15.8664H9.75869C9.71709 15.8664 9.67592 15.8581 9.63761 15.842C9.59929 15.8259 9.56462 15.8022 9.53567 15.7725C9.50673 15.7428 9.48408 15.7075 9.46908 15.6689C9.45409 15.6303 9.44706 15.5891 9.4484 15.5477V14.3029C9.4484 14.221 9.48109 14.1425 9.53928 14.0846C9.59747 14.0267 9.6764 13.9941 9.75869 13.9941H22.2104C22.2927 13.9941 22.3716 14.0267 22.4298 14.0846C22.488 14.1425 22.5207 14.221 22.5207 14.3029V15.5477C22.522 15.5891 22.515 15.6303 22.5 15.6689C22.485 15.7075 22.4623 15.7428 22.4334 15.7725C22.4044 15.8022 22.3698 15.8259 22.3315 15.842C22.2932 15.8581 22.252 15.8664 22.2104 15.8664V15.8664Z" fill="#F9F8F9"/>
<path d="M22.2112 21.4433H9.75951C9.71876 21.4433 9.67842 21.4354 9.64077 21.4199C9.60313 21.4043 9.56891 21.3816 9.54009 21.3529C9.51128 21.3243 9.48842 21.2902 9.47283 21.2528C9.45724 21.2153 9.44922 21.1752 9.44922 21.1346V19.8898C9.44922 19.8079 9.4819 19.7294 9.54009 19.6715C9.59828 19.6136 9.67721 19.5811 9.75951 19.5811H22.2112C22.2935 19.5811 22.3724 19.6136 22.4306 19.6715C22.4888 19.7294 22.5215 19.8079 22.5215 19.8898V21.1346C22.5215 21.1752 22.5135 21.2153 22.4979 21.2528C22.4823 21.2902 22.4594 21.3243 22.4306 21.3529C22.4018 21.3816 22.3676 21.4043 22.3299 21.4199C22.2923 21.4354 22.2519 21.4433 22.2112 21.4433V21.4433Z" fill="#F9F8F9"/>
<path d="M18.3279 25.1974H13.6435C13.602 25.1987 13.5605 25.1918 13.5217 25.1768C13.4829 25.1619 13.4475 25.1394 13.4176 25.1106C13.3877 25.0818 13.364 25.0473 13.3478 25.0092C13.3316 24.9711 13.3232 24.9301 13.3232 24.8887V23.6438C13.3232 23.6024 13.3316 23.5615 13.3478 23.5234C13.364 23.4852 13.3877 23.4508 13.4176 23.422C13.4475 23.3931 13.4829 23.3706 13.5217 23.3557C13.5605 23.3408 13.602 23.3338 13.6435 23.3351H18.3279C18.3695 23.3338 18.4109 23.3408 18.4498 23.3557C18.4886 23.3706 18.524 23.3931 18.5539 23.422C18.5837 23.4508 18.6075 23.4852 18.6237 23.5234C18.6399 23.5615 18.6483 23.6024 18.6482 23.6438V24.8887C18.6483 24.9301 18.6399 24.9711 18.6237 25.0092C18.6075 25.0473 18.5837 25.0818 18.5539 25.1106C18.524 25.1394 18.4886 25.1619 18.4498 25.1768C18.4109 25.1918 18.3695 25.1987 18.3279 25.1974V25.1974Z" fill="white"/>
<path d="M31.5296 21.274C31.6526 21.2741 31.7708 21.2261 31.8587 21.1405C31.9467 21.0548 31.9974 20.9383 32 20.8159V2.52163C32 1.99339 31.7891 1.48677 31.4137 1.11325C31.0382 0.739719 30.5291 0.529875 29.9981 0.529875H8.84829C8.72352 0.529875 8.60387 0.579194 8.51564 0.666973C8.42742 0.754752 8.37785 0.873802 8.37785 0.99794C8.37785 1.12208 8.42742 1.24113 8.51564 1.32891C8.60387 1.41669 8.72352 1.466 8.84829 1.466H29.9681C30.2575 1.466 30.535 1.58036 30.7396 1.78393C30.9442 1.98751 31.0591 2.26361 31.0591 2.55151V6.34581H0.910858V2.52163C0.910858 2.23374 1.02579 1.95763 1.2304 1.75406C1.43501 1.55049 1.71252 1.43613 2.00188 1.43613H6.66625C6.79102 1.43613 6.91068 1.38681 6.9989 1.29903C7.08713 1.21125 7.13669 1.0922 7.13669 0.968064C7.13669 0.843926 7.08713 0.724876 6.9989 0.637098C6.91068 0.549319 6.79102 0.5 6.66625 0.5H2.00188C1.47095 0.5 0.961759 0.709844 0.586335 1.08337C0.21091 1.4569 0 1.96351 0 2.49176V27.5082C0 28.0365 0.21091 28.5431 0.586335 28.9166C0.961759 29.2902 1.47095 29.5 2.00188 29.5H29.9681C30.499 29.5 31.0082 29.2902 31.3836 28.9166C31.7591 28.5431 31.97 28.0365 31.97 27.5082V22.977C31.97 22.8529 31.9204 22.7338 31.8322 22.646C31.744 22.5583 31.6243 22.5089 31.4995 22.5089C31.3748 22.5089 31.2551 22.5583 31.1669 22.646C31.0787 22.7338 31.0291 22.8529 31.0291 22.977V27.5082C31.0304 27.6516 31.0032 27.7939 30.9489 27.9267C30.8947 28.0596 30.8145 28.1804 30.7131 28.2823C30.6116 28.3841 30.4909 28.465 30.3579 28.5201C30.2249 28.5753 30.0822 28.6037 29.9381 28.6037H2.00188C1.85776 28.6037 1.71508 28.5753 1.58205 28.5201C1.44902 28.465 1.3283 28.3841 1.22686 28.2823C1.12542 28.1804 1.04525 28.0596 0.991011 27.9267C0.936774 27.7939 0.909535 27.6516 0.910858 27.5082V7.24209H31.0591V20.8159C31.0617 20.9383 31.1124 21.0548 31.2004 21.1405C31.2883 21.2261 31.4065 21.2741 31.5296 21.274Z" fill="#405056"/>
<path d="M2.61328 3.94521C2.61328 4.22293 2.69604 4.49442 2.85111 4.72534C3.00619 4.95625 3.2266 5.13623 3.48449 5.24251C3.74238 5.34879 4.02615 5.3766 4.29992 5.32241C4.57369 5.26823 4.82518 5.13452 5.02255 4.93814C5.21993 4.74176 5.35435 4.49155 5.40881 4.21916C5.46327 3.94677 5.43529 3.66443 5.32847 3.40785C5.22165 3.15127 5.04076 2.93197 4.80867 2.77768C4.57658 2.62338 4.30371 2.54102 4.02458 2.54102C3.83924 2.54102 3.65572 2.57734 3.48449 2.6479C3.31326 2.71847 3.15769 2.82192 3.02663 2.95231C2.89558 3.0827 2.79164 3.23749 2.72071 3.40785C2.64979 3.57822 2.61328 3.76081 2.61328 3.94521V3.94521ZM4.49502 3.94521C4.49502 4.06935 4.44548 4.1884 4.35726 4.27618C4.26903 4.36395 4.14935 4.41327 4.02458 4.41327C3.89981 4.41327 3.78015 4.36395 3.69193 4.27618C3.6037 4.1884 3.55414 4.06935 3.55414 3.94521C3.55414 3.82107 3.6037 3.70202 3.69193 3.61424C3.78015 3.52646 3.89981 3.47714 4.02458 3.47714C4.14935 3.47714 4.26903 3.52646 4.35726 3.61424C4.44548 3.70202 4.49502 3.82107 4.49502 3.94521V3.94521Z" fill="#405056"/>
<path d="M6.36621 3.94521C6.36621 4.22293 6.44897 4.49442 6.60404 4.72534C6.75912 4.95625 6.97953 5.13623 7.23742 5.24251C7.49531 5.34879 7.77908 5.3766 8.05285 5.32241C8.32662 5.26823 8.57811 5.13452 8.77548 4.93814C8.97286 4.74176 9.10728 4.49155 9.16174 4.21916C9.2162 3.94677 9.18822 3.66443 9.0814 3.40785C8.97458 3.15127 8.79369 2.93197 8.5616 2.77768C8.32951 2.62338 8.05664 2.54102 7.77751 2.54102C7.59217 2.54102 7.40865 2.57734 7.23742 2.6479C7.06619 2.71847 6.91062 2.82192 6.77956 2.95231C6.64851 3.0827 6.54457 3.23749 6.47364 3.40785C6.40272 3.57822 6.36621 3.76081 6.36621 3.94521V3.94521ZM7.77751 3.47714C7.90228 3.47714 8.02196 3.52646 8.11019 3.61424C8.19841 3.70202 8.24795 3.82107 8.24795 3.94521C8.24795 4.06935 8.19841 4.1884 8.11019 4.27618C8.02196 4.36395 7.90228 4.41327 7.77751 4.41327C7.65274 4.41327 7.53308 4.36395 7.44486 4.27618C7.35663 4.1884 7.30706 4.06935 7.30706 3.94521C7.31712 3.8281 7.37111 3.71905 7.45827 3.63971C7.54543 3.56037 7.65938 3.51656 7.77751 3.51699V3.47714Z" fill="#405056"/>
<path d="M12.932 3.94535C12.934 3.66679 12.8526 3.39395 12.6983 3.16151C12.544 2.92907 12.3237 2.74756 12.0654 2.64005C11.8071 2.53254 11.5225 2.50389 11.2478 2.55775C10.9731 2.61161 10.7207 2.74553 10.5228 2.94251C10.3248 3.13949 10.1901 3.39061 10.136 3.66392C10.0819 3.93723 10.1107 4.2204 10.2187 4.47739C10.3268 4.73437 10.5092 4.95357 10.7428 5.10711C10.9765 5.26064 11.2507 5.34154 11.5307 5.33957C11.9015 5.33697 12.2564 5.18925 12.5186 4.92834C12.7809 4.66744 12.9294 4.31432 12.932 3.94535V3.94535ZM11.0602 3.94535C11.0602 3.82121 11.1098 3.70216 11.198 3.61438C11.2862 3.5266 11.4059 3.47728 11.5307 3.47728C11.6554 3.47728 11.7751 3.5266 11.8633 3.61438C11.9516 3.70216 12.0011 3.82121 12.0011 3.94535C12.0011 4.06949 11.9516 4.18854 11.8633 4.27631C11.7751 4.36409 11.6554 4.41341 11.5307 4.41341C11.4059 4.41341 11.2862 4.36409 11.198 4.27631C11.1098 4.18854 11.0602 4.06949 11.0602 3.94535V3.94535Z" fill="#405056"/>
<path d="M28.0267 4.41337H25.4643C25.403 4.41204 25.342 4.42292 25.285 4.44534C25.228 4.46777 25.176 4.50132 25.1322 4.54399C25.0884 4.58667 25.0536 4.63759 25.0298 4.69383C25.0061 4.75007 24.9938 4.81046 24.9938 4.87147C24.9938 4.9956 25.0434 5.11468 25.1316 5.20246C25.2199 5.29024 25.3395 5.33953 25.4643 5.33953H28.0567C28.2514 5.35588 28.4473 5.33185 28.6321 5.26896C28.817 5.20607 28.9867 5.10568 29.1305 4.97416C29.2743 4.84264 29.3892 4.68284 29.4677 4.50488C29.5462 4.32692 29.5868 4.13468 29.5868 3.94032C29.5868 3.74596 29.5462 3.55372 29.4677 3.37576C29.3892 3.1978 29.2743 3.03801 29.1305 2.90648C28.9867 2.77496 28.817 2.67457 28.6321 2.61168C28.4473 2.54879 28.2514 2.52476 28.0567 2.54111H16.4558C16.2612 2.52476 16.0652 2.54879 15.8804 2.61168C15.6956 2.67457 15.5259 2.77496 15.3821 2.90648C15.2382 3.03801 15.1234 3.1978 15.0449 3.37576C14.9663 3.55372 14.9258 3.74596 14.9258 3.94032C14.9258 4.13468 14.9663 4.32692 15.0449 4.50488C15.1234 4.68284 15.2382 4.84264 15.3821 4.97416C15.5259 5.10568 15.6956 5.20607 15.8804 5.26896C16.0652 5.33185 16.2612 5.35588 16.4558 5.33953H23.2422C23.367 5.33953 23.4866 5.29024 23.5748 5.20246C23.6631 5.11468 23.7126 4.9956 23.7126 4.87147C23.7127 4.81046 23.7004 4.75007 23.6767 4.69383C23.6529 4.63759 23.6181 4.58667 23.5743 4.54399C23.5304 4.50132 23.4785 4.46777 23.4215 4.44534C23.3645 4.42292 23.3035 4.41204 23.2422 4.41337H16.4558C16.3319 4.41083 16.2137 4.36071 16.126 4.27348C16.0384 4.18624 15.988 4.06865 15.9854 3.94531C15.9955 3.8282 16.0494 3.71915 16.1366 3.63981C16.2237 3.56047 16.3377 3.51666 16.4558 3.51708H28.0267C28.0885 3.51708 28.1496 3.52918 28.2067 3.5527C28.2638 3.57623 28.3156 3.61072 28.3593 3.65418C28.403 3.69765 28.4377 3.74923 28.4613 3.80602C28.485 3.86281 28.4971 3.92368 28.4971 3.98515C28.4849 4.10141 28.4303 4.20919 28.3436 4.2881C28.2569 4.367 28.1442 4.41157 28.0267 4.41337V4.41337Z" fill="#405056"/>
<path d="M7.60728 19.4521C7.5455 19.4521 7.48432 19.4642 7.42724 19.4877C7.37016 19.5112 7.31832 19.5457 7.27463 19.5892C7.23095 19.6326 7.19628 19.6842 7.17264 19.741C7.149 19.7978 7.13684 19.8587 7.13684 19.9201V26.2938C7.13683 26.6645 7.28413 27.0201 7.54665 27.2832C7.80916 27.5462 8.16558 27.6953 8.53815 27.6979H23.4621C23.8347 27.6953 24.1911 27.5462 24.4536 27.2832C24.7162 27.0201 24.8635 26.6645 24.8634 26.2938V9.57294C24.8634 9.20316 24.7158 8.84855 24.453 8.58709C24.1902 8.32562 23.8338 8.17871 23.4621 8.17871H8.53815C8.16649 8.17871 7.81005 8.32562 7.54726 8.58709C7.28446 8.84855 7.13684 9.20316 7.13684 9.57294V17.7093C7.12701 17.7758 7.1317 17.8436 7.15058 17.9082C7.16946 17.9727 7.20209 18.0324 7.24625 18.0833C7.29042 18.1342 7.34506 18.175 7.4065 18.203C7.46794 18.231 7.53471 18.2454 7.60227 18.2454C7.66983 18.2454 7.73661 18.231 7.79804 18.203C7.85948 18.175 7.91412 18.1342 7.95829 18.0833C8.00245 18.0324 8.03511 17.9727 8.05399 17.9082C8.07287 17.8436 8.07753 17.7758 8.0677 17.7093V9.57294C8.0677 9.4488 8.11727 9.32975 8.2055 9.24197C8.29372 9.15419 8.41338 9.10487 8.53815 9.10487H23.4621C23.5869 9.10487 23.7066 9.15419 23.7948 9.24197C23.883 9.32975 23.9326 9.4488 23.9326 9.57294V26.2539C23.9326 26.3154 23.9204 26.3763 23.8968 26.433C23.8731 26.4898 23.8385 26.5414 23.7948 26.5849C23.7511 26.6284 23.6993 26.6628 23.6422 26.6864C23.5851 26.7099 23.5239 26.722 23.4621 26.722H8.53815C8.47637 26.722 8.41518 26.7099 8.35811 26.6864C8.30103 26.6628 8.24918 26.6284 8.2055 26.5849C8.16181 26.5414 8.12715 26.4898 8.1035 26.433C8.07986 26.3763 8.0677 26.3154 8.0677 26.2539V19.8803C8.05781 19.7649 8.00527 19.6572 7.92023 19.5781C7.83518 19.499 7.72368 19.4541 7.60728 19.4521Z" fill="#405056"/>
<path d="M20.3288 10.9762C20.4535 10.9762 20.5732 10.9268 20.6614 10.8391C20.7496 10.7513 20.7992 10.6322 20.7992 10.5081C20.7992 10.384 20.7496 10.2649 20.6614 10.1771C20.5732 10.0894 20.4535 10.04 20.3288 10.04H18.6472C18.5224 10.04 18.4028 10.0894 18.3146 10.1771C18.2263 10.2649 18.1768 10.384 18.1768 10.5081C18.1768 10.6322 18.2263 10.7513 18.3146 10.8391C18.4028 10.9268 18.5224 10.9762 18.6472 10.9762H20.3288Z" fill="#405056"/>
<path d="M16.7657 10.9762C16.8904 10.9762 17.0101 10.9268 17.0983 10.8391C17.1865 10.7513 17.2361 10.6322 17.2361 10.5081C17.2361 10.384 17.1865 10.2649 17.0983 10.1771C17.0101 10.0894 16.8904 10.04 16.7657 10.04H11.7009C11.5761 10.04 11.4565 10.0894 11.3683 10.1771C11.28 10.2649 11.2305 10.384 11.2305 10.5081C11.2305 10.6322 11.28 10.7513 11.3683 10.8391C11.4565 10.9268 11.5761 10.9762 11.7009 10.9762H16.7657Z" fill="#405056"/>
<path d="M8.97852 12.3812C8.98113 12.5036 9.03185 12.6202 9.11979 12.7058C9.20773 12.7914 9.3259 12.8394 9.44896 12.8393H13.2025C13.2693 12.8491 13.3375 12.8445 13.4024 12.8257C13.4672 12.8069 13.5273 12.7744 13.5784 12.7305C13.6295 12.6866 13.6706 12.6322 13.6987 12.571C13.7268 12.5099 13.7413 12.4435 13.7413 12.3763C13.7413 12.309 13.7268 12.2426 13.6987 12.1815C13.6706 12.1204 13.6295 12.066 13.5784 12.022C13.5273 11.9781 13.4672 11.9456 13.4024 11.9269C13.3375 11.9081 13.2693 11.9034 13.2025 11.9132H9.44896C9.32419 11.9132 9.20453 11.9625 9.11631 12.0503C9.02808 12.1381 8.97852 12.2571 8.97852 12.3812V12.3812Z" fill="#405056"/>
<path d="M9.44896 18.1969H15.0742C15.136 18.1969 15.1972 18.1848 15.2543 18.1613C15.3113 18.1377 15.3632 18.1032 15.4069 18.0598C15.4506 18.0163 15.4852 17.9647 15.5089 17.9079C15.5325 17.8511 15.5447 17.7903 15.5447 17.7288C15.5447 17.6673 15.5325 17.6065 15.5089 17.5497C15.4852 17.4929 15.4506 17.4413 15.4069 17.3978C15.3632 17.3544 15.3113 17.3199 15.2543 17.2964C15.1972 17.2729 15.136 17.2607 15.0742 17.2607H9.44896C9.38718 17.2607 9.326 17.2729 9.26892 17.2964C9.21184 17.3199 9.15999 17.3544 9.11631 17.3978C9.07263 17.4413 9.03796 17.4929 9.01432 17.5497C8.99067 17.6065 8.97852 17.6673 8.97852 17.7288C8.97852 17.7903 8.99067 17.8511 9.01432 17.9079C9.03796 17.9647 9.07263 18.0163 9.11631 18.0598C9.15999 18.1032 9.21184 18.1377 9.26892 18.1613C9.326 18.1848 9.38718 18.1969 9.44896 18.1969V18.1969Z" fill="#405056"/>
<path d="M8.97852 15.548C8.97852 15.754 9.06077 15.9516 9.20718 16.0973C9.3536 16.2429 9.55218 16.3248 9.75925 16.3248H22.2109C22.418 16.3248 22.6166 16.2429 22.763 16.0973C22.9094 15.9516 22.9917 15.754 22.9917 15.548V14.3032C22.9917 14.0971 22.9094 13.8996 22.763 13.7539C22.6166 13.6082 22.418 13.5264 22.2109 13.5264H9.75925C9.55218 13.5264 9.3536 13.6082 9.20718 13.7539C9.06077 13.8996 8.97852 14.0971 8.97852 14.3032V15.548ZM9.9194 14.4625H22.0508V15.3986H9.9194V14.4625Z" fill="#405056"/>
<path d="M8.97852 21.1544C8.97852 21.3605 9.06077 21.558 9.20718 21.7037C9.3536 21.8494 9.55218 21.9312 9.75925 21.9312H22.2109C22.418 21.9312 22.6166 21.8494 22.763 21.7037C22.9094 21.558 22.9917 21.3605 22.9917 21.1544V19.9096C22.9917 19.7036 22.9094 19.506 22.763 19.3603C22.6166 19.2147 22.418 19.1328 22.2109 19.1328H9.75925C9.55218 19.1328 9.3536 19.2147 9.20718 19.3603C9.06077 19.506 8.97852 19.7036 8.97852 19.9096V21.1544ZM9.9194 20.059H22.0508V20.9951H9.9194V20.059Z" fill="#405056"/>
<path d="M13.643 22.8672C13.436 22.8672 13.2374 22.949 13.091 23.0947C12.9446 23.2404 12.8623 23.438 12.8623 23.644V24.8888C12.8623 25.0948 12.9446 25.2924 13.091 25.4381C13.2374 25.5838 13.436 25.6656 13.643 25.6656H18.3274C18.5354 25.6656 18.735 25.5841 18.8831 25.4387C19.0311 25.2933 19.1155 25.0957 19.1182 24.8888V23.644C19.1155 23.437 19.0311 23.2395 18.8831 23.0941C18.735 22.9487 18.5354 22.8672 18.3274 22.8672H13.643ZM18.1773 24.7295H13.7932V23.7933H18.1773V24.7295Z" fill="#405056"/>
</svg>
