<svg width="24" height="24" viewBox="0 0 24 24" fill="none" xmlns="http://www.w3.org/2000/svg">
<g clip-path="url(#clip0_3984_19324)">
<path d="M17.5249 23.1583H1.60696C1.40182 23.1583 1.20508 23.076 1.06003 22.9295C0.91498 22.783 0.833496 22.5843 0.833496 22.3771V1.61714C0.833496 1.40996 0.91498 1.21126 1.06003 1.06476C1.20508 0.918253 1.40182 0.835949 1.60696 0.835949H17.5249C17.6268 0.835381 17.7279 0.855166 17.8222 0.894169C17.9166 0.933175 18.0023 0.990627 18.0746 1.06323C18.1469 1.13582 18.2042 1.22213 18.2434 1.31719C18.2825 1.41225 18.3026 1.51419 18.3026 1.61714V22.3642C18.3043 22.4682 18.2855 22.5716 18.2471 22.6681C18.2087 22.7647 18.1516 22.8525 18.0792 22.9265C18.0067 23.0005 17.9204 23.0591 17.8252 23.0989C17.73 23.1387 17.6279 23.1589 17.5249 23.1583Z" fill="white"/>
<path d="M18.3195 1.61769V22.3647C18.3195 22.4677 18.2993 22.5696 18.2602 22.6647C18.221 22.7598 18.1637 22.8461 18.0914 22.9187C18.0191 22.9913 17.9334 23.0487 17.839 23.0877C17.7447 23.1267 17.6437 23.1465 17.5417 23.1459H16.3965C16.6016 23.1459 16.7984 23.0636 16.9434 22.9171C17.0885 22.7706 17.17 22.5719 17.17 22.3647V1.60474C17.17 1.39756 17.0885 1.19886 16.9434 1.05235C16.7984 0.905851 16.6016 0.823543 16.3965 0.823543H17.5246C17.6291 0.820613 17.733 0.839087 17.8302 0.877849C17.9274 0.916611 18.0158 0.974858 18.0901 1.04907C18.1643 1.12329 18.223 1.21194 18.2624 1.30966C18.3018 1.40739 18.3212 1.51218 18.3195 1.61769Z" fill="#F6F6F6"/>
<path d="M16.059 4.79542C16.0573 5.15953 15.9489 5.51499 15.7474 5.81694C15.5458 6.11886 15.2603 6.35374 14.9267 6.4919C14.5932 6.63006 14.2265 6.66534 13.8731 6.59326C13.5197 6.52118 13.1954 6.34497 12.9411 6.08689C12.6868 5.82881 12.5138 5.50041 12.4441 5.14315C12.3744 4.78589 12.411 4.4158 12.5494 4.07954C12.6877 3.74328 12.9216 3.45597 13.2215 3.25384C13.5214 3.05172 13.8738 2.94385 14.2343 2.94385C14.7183 2.94385 15.1824 3.13801 15.5246 3.48363C15.8668 3.82926 16.059 4.298 16.059 4.78679V4.79542Z" fill="#C4C4C4"/>
<path d="M16.0591 4.79541C16.0587 5.16619 15.9477 5.52824 15.7405 5.83427C15.5332 6.14029 15.2394 6.37609 14.8974 6.5108C14.5554 6.64553 14.1811 6.67292 13.8234 6.58941C13.4658 6.50592 13.1413 6.31539 12.8926 6.04275C13.0823 6.10883 13.2816 6.14236 13.4823 6.14201C13.8365 6.14172 14.183 6.0373 14.4795 5.84147C14.776 5.64565 15.0096 5.36691 15.1519 5.03923C15.2942 4.71158 15.3389 4.34916 15.2807 3.99625C15.2225 3.64332 15.0638 3.31513 14.8241 3.05176C15.1839 3.17656 15.4963 3.41159 15.7176 3.72412C15.939 4.03666 16.0584 4.41115 16.0591 4.79541Z" fill="#959595"/>
<path d="M15.1875 10.3789H3.96585C3.73352 10.3789 3.5107 10.2857 3.34642 10.1198C3.18214 9.95386 3.08984 9.72881 3.08984 9.49416C3.08984 9.25949 3.18214 9.03446 3.34642 8.86852C3.5107 8.70259 3.73352 8.60938 3.96585 8.60938H15.1875C15.4198 8.60938 15.6426 8.70259 15.8069 8.86852C15.9712 9.03446 16.0635 9.25949 16.0635 9.49416C16.0635 9.72881 15.9712 9.95386 15.8069 10.1198C15.6426 10.2857 15.4198 10.3789 15.1875 10.3789Z" fill="#C4C4C4"/>
<path d="M15.183 13.465H3.96568C3.73391 13.465 3.51165 13.372 3.34776 13.2064C3.18387 13.0409 3.0918 12.8164 3.0918 12.5823C3.0918 12.3483 3.18387 12.1238 3.34776 11.9582C3.51165 11.7927 3.73391 11.6997 3.96568 11.6997H15.183C15.4148 11.6997 15.6371 11.7927 15.801 11.9582C15.9648 12.1238 16.0569 12.3483 16.0569 12.5823C16.0569 12.8164 15.9648 13.0409 15.801 13.2064C15.6371 13.372 15.4148 13.465 15.183 13.465Z" fill="#C4C4C4"/>
<path d="M15.183 16.5558H3.96568C3.73391 16.5558 3.51165 16.4628 3.34776 16.2973C3.18387 16.1317 3.0918 15.9072 3.0918 15.6732C3.0918 15.4391 3.18387 15.2146 3.34776 15.049C3.51165 14.8835 3.73391 14.7905 3.96568 14.7905H15.183C15.4148 14.7905 15.6371 14.8835 15.801 15.049C15.9648 15.2146 16.0569 15.4391 16.0569 15.6732C16.0569 15.9072 15.9648 16.1317 15.801 16.2973C15.6371 16.4628 15.4148 16.5558 15.183 16.5558Z" fill="#C4C4C4"/>
<path d="M11.8371 19.6466H3.96568C3.73391 19.6466 3.51165 19.5536 3.34776 19.3881C3.18387 19.2225 3.0918 18.9981 3.0918 18.764C3.0918 18.5299 3.18387 18.3054 3.34776 18.1399C3.51165 17.9743 3.73391 17.8813 3.96568 17.8813H11.8371C12.0688 17.8813 12.2911 17.9743 12.455 18.1399C12.6189 18.3054 12.7109 18.5299 12.7109 18.764C12.7109 18.9981 12.6189 19.2225 12.455 19.3881C12.2911 19.5536 12.0688 19.6466 11.8371 19.6466Z" fill="#C4C4C4"/>
<path d="M16.059 9.49416C16.059 9.60935 16.0362 9.7234 15.9919 9.82955C15.9476 9.93572 15.8828 10.0319 15.8011 10.1123C15.7195 10.1927 15.6227 10.2559 15.5165 10.298C15.4104 10.34 15.2969 10.3602 15.1829 10.3574H14.1958C14.3098 10.3602 14.4233 10.34 14.5294 10.298C14.6356 10.2559 14.7324 10.1927 14.814 10.1123C14.8956 10.0319 14.9605 9.93572 15.0048 9.82955C15.0491 9.7234 15.0719 9.60935 15.0718 9.49416C15.0718 9.25949 14.9795 9.03446 14.8153 8.86852C14.651 8.70259 14.4281 8.60938 14.1958 8.60938H15.1829C15.4153 8.60938 15.6381 8.70259 15.8024 8.86852C15.9667 9.03446 16.059 9.25949 16.059 9.49416Z" fill="#C4C4C4"/>
<path d="M16.059 12.5842C16.059 12.6994 16.0362 12.8134 15.9919 12.9196C15.9476 13.0257 15.8828 13.1219 15.8011 13.2023C15.7195 13.2827 15.6227 13.3459 15.5166 13.388C15.4104 13.4301 15.2969 13.4503 15.1829 13.4474H14.1958C14.4276 13.4474 14.6498 13.3544 14.8137 13.1889C14.9776 13.0233 15.0697 12.7988 15.0697 12.5648C15.0697 12.3307 14.9776 12.1062 14.8137 11.9406C14.6498 11.7751 14.4276 11.6821 14.1958 11.6821H15.1829C15.2994 11.6821 15.4147 11.7055 15.5222 11.7511C15.6296 11.7966 15.7269 11.8633 15.8085 11.9473C15.8901 12.0313 15.9542 12.1309 15.9973 12.2403C16.0402 12.3496 16.0612 12.4665 16.059 12.5842Z" fill="#C4C4C4"/>
<path d="M16.059 15.6745C16.059 15.7897 16.0362 15.9037 15.9919 16.0099C15.9476 16.1161 15.8828 16.2122 15.8011 16.2926C15.7195 16.3731 15.6227 16.4362 15.5165 16.4783C15.4104 16.5204 15.2969 16.5406 15.1829 16.5377H14.1958C14.4276 16.5377 14.6498 16.4447 14.8137 16.2792C14.9776 16.1137 15.0697 15.8892 15.0697 15.6551C15.0697 15.421 14.9776 15.1965 14.8137 15.031C14.6498 14.8655 14.4276 14.7725 14.1958 14.7725H15.1829C15.4153 14.7725 15.6381 14.8657 15.8024 15.0316C15.9667 15.1975 16.059 15.4226 16.059 15.6572V15.6745Z" fill="#C4C4C4"/>
<path d="M12.709 18.7614C12.709 18.9904 12.6189 19.2099 12.4587 19.3718C12.2984 19.5337 12.081 19.6246 11.8543 19.6246H10.8672C11.099 19.6246 11.3212 19.5316 11.4851 19.3661C11.649 19.2006 11.7411 18.9761 11.7411 18.742C11.7411 18.5079 11.649 18.2834 11.4851 18.1179C11.3212 17.9524 11.099 17.8594 10.8672 17.8594H11.8543C11.9699 17.8593 12.0842 17.8828 12.1905 17.9286C12.2968 17.9744 12.3928 18.0415 12.4727 18.1258C12.5525 18.2101 12.6147 18.3099 12.6553 18.4191C12.6959 18.5284 12.7142 18.6448 12.709 18.7614Z" fill="#C4C4C4"/>
<path d="M22.2252 21.1348H15.6913C15.5978 21.1348 15.5052 21.1162 15.4189 21.0799C15.3325 21.0436 15.2541 20.9904 15.1882 20.9235C15.1223 20.8565 15.0701 20.777 15.0347 20.6896C14.9993 20.6021 14.9814 20.5085 14.9819 20.4141V19.5509C14.9814 19.4564 14.9993 19.3628 15.0347 19.2754C15.0701 19.1879 15.1223 19.1084 15.1882 19.0414C15.2541 18.9745 15.3325 18.9213 15.4189 18.885C15.5052 18.8488 15.5978 18.8301 15.6913 18.8301H22.2252C22.3187 18.8301 22.4113 18.8488 22.4976 18.885C22.584 18.9213 22.6623 18.9745 22.7283 19.0414C22.7942 19.1084 22.8464 19.1879 22.8817 19.2754C22.9172 19.3628 22.9351 19.4564 22.9345 19.5509V20.4141C22.9351 20.5085 22.9172 20.6021 22.8817 20.6896C22.8464 20.777 22.7942 20.8565 22.7283 20.9235C22.6623 20.9904 22.584 21.0436 22.4976 21.0799C22.4113 21.1162 22.3187 21.1348 22.2252 21.1348Z" fill="#525252"/>
<path d="M22.9435 19.5597V20.4229C22.944 20.5173 22.9261 20.611 22.8907 20.6984C22.8553 20.7858 22.8031 20.8653 22.7372 20.9323C22.6713 20.9993 22.5929 21.0524 22.5065 21.0887C22.4202 21.125 22.3276 21.1437 22.2341 21.1437H21.1914C21.3807 21.1437 21.5622 21.0677 21.696 20.9326C21.8299 20.7974 21.9051 20.6141 21.9051 20.4229V19.5597C21.9051 19.3685 21.8299 19.1852 21.696 19.05C21.5622 18.9149 21.3807 18.8389 21.1914 18.8389H22.2255C22.3198 18.8378 22.4133 18.8556 22.5006 18.8914C22.588 18.9271 22.6674 18.9801 22.7342 19.0472C22.801 19.1143 22.854 19.1942 22.8899 19.2822C22.9258 19.3702 22.944 19.4645 22.9435 19.5597Z" fill="#333333"/>
<path d="M18.9649 21.1353H15.9736L16.2343 22.3049C16.2861 22.5489 16.419 22.7677 16.6111 22.9248C16.8032 23.0818 17.0427 23.1677 17.2898 23.1681H20.6272C20.8743 23.1677 21.1139 23.0818 21.3059 22.9248C21.498 22.7677 21.6309 22.5489 21.6827 22.3049L21.9434 21.1353H18.9649Z" fill="#C42821"/>
<path d="M21.9474 21.1353L21.6867 22.3049C21.6349 22.5489 21.5019 22.7677 21.3099 22.9248C21.1178 23.0818 20.8783 23.1677 20.6312 23.1681H19.5928C19.8397 23.1669 20.0788 23.0808 20.2707 22.9238C20.4626 22.7669 20.5958 22.5486 20.6483 22.3049L20.909 21.1353H21.9474Z" fill="#959595"/>
<path d="M20.6402 18.8389H17.2856V17.38C17.2856 17.3318 17.295 17.2841 17.3133 17.2396C17.3316 17.1951 17.3583 17.1547 17.392 17.1206C17.4258 17.0866 17.4658 17.0595 17.5099 17.0411C17.5539 17.0227 17.6012 17.0132 17.6489 17.0132H20.2769C20.3733 17.0132 20.4657 17.0518 20.5338 17.1206C20.6019 17.1894 20.6402 17.2827 20.6402 17.38V18.8389Z" fill="#7C8388"/>
<path d="M20.6399 17.38V18.8389H19.6015V17.38C19.6004 17.2831 19.5618 17.1904 19.4939 17.1219C19.426 17.0533 19.3343 17.0143 19.2383 17.0132H20.2767C20.373 17.0132 20.4654 17.0518 20.5335 17.1206C20.6017 17.1894 20.6399 17.2827 20.6399 17.38Z" fill="#6A7075"/>
<path d="M17.5888 12.8435C17.4113 13.0563 17.2846 13.3075 17.2187 13.5778C17.1527 13.8479 17.1493 14.1298 17.2085 14.4016L17.7726 16.9912H20.1571L20.7212 14.4016C20.8063 14.0053 20.7577 13.5916 20.5832 13.2264C20.4086 12.8611 20.1181 12.5654 19.7579 12.3862C19.3977 12.207 18.9884 12.1547 18.5954 12.2376C18.2023 12.3205 17.848 12.5338 17.5888 12.8435Z" fill="#C42821"/>
<path d="M20.7211 14.4026L20.1571 16.9922H19.3323L19.8964 14.4026C19.9548 14.1298 19.9505 13.8471 19.8838 13.5763C19.8171 13.3054 19.6899 13.0536 19.5118 12.8402C19.2634 12.5428 18.9259 12.3353 18.5503 12.2489C18.6902 12.215 18.8338 12.199 18.9776 12.2014C19.2385 12.2005 19.4965 12.2572 19.7335 12.3676C19.9704 12.4779 20.1806 12.6392 20.3493 12.8402C20.5263 13.0542 20.6529 13.3061 20.7195 13.5767C20.7861 13.8474 20.7911 14.1297 20.734 14.4026H20.7211Z" fill="#333333"/>
<path d="M16.3925 4.79442C16.3968 4.36245 16.2738 3.93895 16.0393 3.57769C15.8048 3.21643 15.4692 2.93372 15.0753 2.76543C14.6814 2.59715 14.2468 2.5509 13.8268 2.63255C13.4068 2.71419 13.0203 2.92005 12.7163 3.224C12.4124 3.52794 12.2047 3.91625 12.1197 4.33964C12.0347 4.763 12.0762 5.20234 12.2389 5.60188C12.4015 6.00141 12.6781 6.3431 13.0335 6.58356C13.3888 6.82401 13.8068 6.95241 14.2346 6.95244C14.8029 6.95133 15.3479 6.7243 15.7518 6.32044C16.1556 5.91659 16.3858 5.36838 16.3925 4.79442ZM12.7432 4.79442C12.7432 4.49652 12.8306 4.20529 12.9945 3.95758C13.1584 3.70987 13.3913 3.51681 13.6638 3.4028C13.9363 3.28879 14.2362 3.25896 14.5255 3.31708C14.8148 3.3752 15.0805 3.51865 15.2891 3.72933C15.4977 3.93999 15.6397 4.20838 15.6973 4.50057C15.7548 4.79276 15.7253 5.09562 15.6124 5.37087C15.4995 5.64611 15.3084 5.88135 15.0631 6.04686C14.8179 6.21237 14.5295 6.30071 14.2346 6.30071C13.839 6.30071 13.4597 6.14201 13.18 5.85952C12.9003 5.57706 12.7432 5.19393 12.7432 4.79442Z" fill="black"/>
<path d="M10.5594 3.64205C10.6478 3.64205 10.7326 3.60656 10.7951 3.54343C10.8576 3.48032 10.8928 3.39469 10.8928 3.3054C10.8928 3.21611 10.8576 3.13049 10.7951 3.06735C10.7326 3.00422 10.6478 2.96875 10.5594 2.96875H9.68342C9.59501 2.96875 9.51023 3.00422 9.44772 3.06735C9.38521 3.13049 9.3501 3.21611 9.3501 3.3054C9.3501 3.39469 9.38521 3.48032 9.44772 3.54343C9.51023 3.60656 9.59501 3.64205 9.68342 3.64205H10.5594Z" fill="black"/>
<path d="M3.09406 3.64205H7.52545C7.61385 3.64205 7.69861 3.60656 7.76112 3.54343C7.82363 3.48032 7.85875 3.39469 7.85875 3.3054C7.85875 3.21611 7.82363 3.13049 7.76112 3.06735C7.69861 3.00422 7.61385 2.96875 7.52545 2.96875H3.09406C3.00565 2.96875 2.92087 3.00422 2.85836 3.06735C2.79585 3.13049 2.76074 3.21611 2.76074 3.3054C2.76074 3.39469 2.79585 3.48032 2.85836 3.54343C2.92087 3.60656 3.00565 3.64205 3.09406 3.64205Z" fill="black"/>
<path d="M3.09406 6.62496H4.23501C4.32342 6.62496 4.4082 6.5895 4.47071 6.52636C4.53322 6.46323 4.56833 6.3776 4.56833 6.28831C4.56833 6.19902 4.53322 6.1134 4.47071 6.05026C4.4082 5.98713 4.32342 5.95166 4.23501 5.95166H3.09406C3.00565 5.95166 2.92087 5.98713 2.85836 6.05026C2.79585 6.1134 2.76074 6.19902 2.76074 6.28831C2.76074 6.3776 2.79585 6.46323 2.85836 6.52636C2.92087 6.5895 3.00565 6.62496 3.09406 6.62496Z" fill="black"/>
<path d="M6.41437 5.96436C6.32597 5.96436 6.24119 5.99982 6.17868 6.06296C6.11617 6.12609 6.08105 6.21172 6.08105 6.30101C6.08105 6.39029 6.11617 6.47592 6.17868 6.53906C6.24119 6.60219 6.32597 6.63766 6.41437 6.63766H7.13655C7.22495 6.63766 7.30973 6.60219 7.37224 6.53906C7.43475 6.47592 7.46987 6.39029 7.46987 6.30101C7.46987 6.21172 7.43475 6.12609 7.37224 6.06296C7.30973 5.99982 7.22495 5.96436 7.13655 5.96436H6.41437Z" fill="black"/>
<path d="M3.09406 5.1318H10.5595C10.6479 5.1318 10.7327 5.09633 10.7952 5.0332C10.8577 4.97006 10.8928 4.88443 10.8928 4.79515C10.8928 4.70586 10.8577 4.62023 10.7952 4.5571C10.7327 4.49396 10.6479 4.4585 10.5595 4.4585H3.09406C3.00565 4.4585 2.92087 4.49396 2.85836 4.5571C2.79585 4.62023 2.76074 4.70586 2.76074 4.79515C2.76074 4.88443 2.79585 4.97006 2.85836 5.0332C2.92087 5.09633 3.00565 5.1318 3.09406 5.1318Z" fill="black"/>
<path d="M3.96567 10.7124H15.183C15.5037 10.7124 15.8114 10.5837 16.0382 10.3546C16.265 10.1256 16.3924 9.8149 16.3924 9.49095C16.3924 9.16701 16.265 8.85633 16.0382 8.62727C15.8114 8.39822 15.5037 8.26953 15.183 8.26953H3.96567C3.64495 8.26951 3.33734 8.39822 3.11055 8.62727C2.88376 8.85633 2.75635 9.16701 2.75635 9.49095C2.75635 9.8149 2.88376 10.1256 3.11055 10.3546C3.33734 10.5837 3.64495 10.7124 3.96567 10.7124ZM3.96567 8.94281H15.183C15.2581 8.93607 15.3337 8.94518 15.405 8.96956C15.4764 8.99392 15.5419 9.03304 15.5975 9.0844C15.653 9.13573 15.6974 9.19823 15.7278 9.26785C15.7582 9.33747 15.7738 9.41272 15.7738 9.48878C15.7738 9.56487 15.7582 9.64012 15.7278 9.70975C15.6974 9.77937 15.653 9.84183 15.5975 9.89319C15.5419 9.94455 15.4764 9.98365 15.405 10.008C15.3337 10.0324 15.2581 10.0415 15.183 10.0348H3.96567C3.83061 10.0226 3.70493 9.95985 3.61339 9.85881C3.52184 9.75775 3.47108 9.62575 3.47108 9.48878C3.47108 9.35182 3.52184 9.21982 3.61339 9.11878C3.70493 9.01774 3.83061 8.95495 3.96567 8.94281Z" fill="black"/>
<path d="M3.9656 13.803H15.1829C15.3475 13.8129 15.5124 13.7887 15.6673 13.7319C15.8223 13.6751 15.9642 13.5869 16.0841 13.4727C16.2041 13.3585 16.2997 13.2208 16.3651 13.0679C16.4304 12.915 16.4641 12.7503 16.4641 12.5838C16.4641 12.4172 16.4304 12.2525 16.3651 12.0996C16.2997 11.9467 16.2041 11.809 16.0841 11.6948C15.9642 11.5806 15.8223 11.4924 15.6673 11.4356C15.5124 11.3788 15.3475 11.3546 15.1829 11.3645H3.9656C3.65783 11.383 3.36872 11.5195 3.15728 11.7461C2.94586 11.9727 2.82812 12.2724 2.82812 12.5838C2.82812 12.8951 2.94586 13.1948 3.15728 13.4214C3.36872 13.648 3.65783 13.7845 3.9656 13.803ZM3.9656 12.0378H15.1829C15.258 12.031 15.3336 12.0401 15.4049 12.0645C15.4763 12.0889 15.5418 12.128 15.5974 12.1794C15.653 12.2307 15.6974 12.2932 15.7277 12.3628C15.7581 12.4324 15.7738 12.5077 15.7738 12.5838C15.7738 12.6598 15.7581 12.7351 15.7277 12.8047C15.6974 12.8743 15.653 12.9368 15.5974 12.9881C15.5418 13.0395 15.4763 13.0786 15.4049 13.103C15.3336 13.1274 15.258 13.1365 15.1829 13.1297H3.9656C3.83051 13.1176 3.70483 13.0548 3.61331 12.9538C3.52177 12.8527 3.47101 12.7207 3.47101 12.5838C3.47101 12.4468 3.52177 12.3148 3.61331 12.2137C3.70483 12.1127 3.83051 12.0499 3.9656 12.0378Z" fill="black"/>
<path d="M3.9656 16.8919H15.1829C15.3475 16.9018 15.5124 16.8776 15.6673 16.8208C15.8223 16.764 15.9642 16.6758 16.0841 16.5616C16.2041 16.4474 16.2997 16.3096 16.3651 16.1568C16.4304 16.0039 16.4641 15.8391 16.4641 15.6726C16.4641 15.5061 16.4304 15.3413 16.3651 15.1885C16.2997 15.0356 16.2041 14.8978 16.0841 14.7836C15.9642 14.6694 15.8223 14.5812 15.6673 14.5244C15.5124 14.4676 15.3475 14.4434 15.1829 14.4533H3.9656C3.65783 14.4718 3.36872 14.6083 3.15728 14.835C2.94586 15.0616 2.82812 15.3612 2.82812 15.6726C2.82812 15.984 2.94586 16.2836 3.15728 16.5102C3.36872 16.7369 3.65783 16.8734 3.9656 16.8919ZM3.9656 15.1266H15.1829C15.258 15.1199 15.3336 15.129 15.4049 15.1534C15.4763 15.1777 15.5418 15.2169 15.5974 15.2682C15.653 15.3196 15.6974 15.382 15.7277 15.4517C15.7581 15.5213 15.7738 15.5965 15.7738 15.6726C15.7738 15.7487 15.7581 15.8239 15.7277 15.8936C15.6974 15.9632 15.653 16.0257 15.5974 16.077C15.5418 16.1284 15.4763 16.1675 15.4049 16.1919C15.3336 16.2162 15.258 16.2253 15.1829 16.2186H3.9656C3.83051 16.2064 3.70483 16.1437 3.61331 16.0426C3.52177 15.9416 3.47101 15.8096 3.47101 15.6726C3.47101 15.5356 3.52177 15.4036 3.61331 15.3026C3.70483 15.2015 3.83051 15.1388 3.9656 15.1266Z" fill="black"/>
<path d="M3.9656 19.982H11.837C12.1447 19.9635 12.4339 19.827 12.6453 19.6003C12.8567 19.3737 12.9744 19.0741 12.9744 18.7627C12.9744 18.4513 12.8567 18.1517 12.6453 17.9251C12.4339 17.6985 12.1447 17.5619 11.837 17.5435H3.9656C3.65783 17.5619 3.36872 17.6985 3.15728 17.9251C2.94586 18.1517 2.82812 18.4513 2.82812 18.7627C2.82812 19.0741 2.94586 19.3737 3.15728 19.6003C3.36872 19.827 3.65783 19.9635 3.9656 19.982ZM3.9656 18.2167H11.837C11.972 18.2289 12.0977 18.2917 12.1893 18.3927C12.2808 18.4937 12.3316 18.6257 12.3316 18.7627C12.3316 18.8997 12.2808 19.0317 12.1893 19.1327C12.0977 19.2338 11.972 19.2965 11.837 19.3087H3.9656C3.83051 19.2965 3.70483 19.2338 3.61331 19.1327C3.52177 19.0317 3.47101 18.8997 3.47101 18.7627C3.47101 18.6257 3.52177 18.4937 3.61331 18.3927C3.70483 18.2917 3.83051 18.2289 3.9656 18.2167Z" fill="black"/>
<path d="M22.2253 18.5021H20.9647V17.3799C20.9642 17.2421 20.9233 17.1076 20.8473 16.9931C20.7712 16.8787 20.6634 16.7896 20.5374 16.7368L21.0288 14.4752C21.0956 14.1612 21.0921 13.8361 21.0187 13.5236C20.9452 13.2111 20.8036 12.9191 20.6042 12.6689C20.4048 12.4187 20.1526 12.2166 19.8661 12.0773C19.5795 11.9381 19.2657 11.8652 18.9477 11.864C18.8434 11.8646 18.7392 11.8718 18.6358 11.8856V1.61785C18.6347 1.32098 18.5171 1.03666 18.3089 0.827147C18.1006 0.617634 17.8187 0.499998 17.5247 0.5H1.60679C1.31325 0.5 1.03174 0.617775 0.824173 0.827412C0.616613 1.03705 0.500014 1.32138 0.500014 1.61785V5.23034C0.500014 5.31963 0.53513 5.40526 0.597639 5.46839C0.660147 5.53153 0.744928 5.56699 0.833328 5.56699C0.92173 5.56699 1.00651 5.53153 1.06902 5.46839C1.13153 5.40526 1.16664 5.31963 1.16664 5.23034V1.61785C1.16664 1.50338 1.21166 1.3936 1.2918 1.31266C1.37194 1.23172 1.48064 1.18625 1.59397 1.18625H17.5247C17.6381 1.18625 17.7468 1.23172 17.8269 1.31266C17.907 1.3936 17.9521 1.50338 17.9521 1.61785V12.1014C17.7043 12.2317 17.4838 12.409 17.3025 12.6237C17.0509 12.9241 16.8854 13.2882 16.8239 13.6768C16.8097 13.7649 16.8308 13.8551 16.8825 13.9276C16.9342 14 17.0123 14.0487 17.0995 14.0631C17.1868 14.0774 17.2761 14.0561 17.3479 14.0039C17.4196 13.9516 17.4678 13.8728 17.482 13.7847C17.5254 13.5176 17.639 13.2671 17.811 13.0596C18.0183 12.796 18.3086 12.6119 18.6337 12.5378C18.9588 12.4637 19.2992 12.504 19.5985 12.6521C19.8978 12.8003 20.1379 13.0472 20.2792 13.3521C20.4204 13.657 20.4542 14.0015 20.375 14.3285L19.8707 16.6764H18.0375L17.7299 15.2348C17.7206 15.1915 17.703 15.1504 17.678 15.1139C17.653 15.0774 17.6211 15.0463 17.5842 15.0222C17.5473 14.9982 17.5061 14.9817 17.4629 14.9738C17.4197 14.9658 17.3754 14.9665 17.3324 14.9759C17.2895 14.9852 17.2488 15.003 17.2127 15.0283C17.1766 15.0535 17.1457 15.0857 17.1219 15.1229C17.0981 15.1602 17.0818 15.2019 17.0739 15.2455C17.0661 15.2891 17.0668 15.3339 17.076 15.3773L17.3709 16.7368C17.2449 16.7896 17.1371 16.8787 17.061 16.9931C16.985 17.1076 16.9441 17.2421 16.9436 17.3799V18.5021H15.6616C15.3847 18.5032 15.1195 18.6151 14.924 18.8133C14.7286 19.0115 14.6189 19.2798 14.6189 19.5595V20.4227C14.62 20.7016 14.7302 20.9688 14.9255 21.1661C15.1208 21.3633 15.3854 21.4747 15.6616 21.4758L15.8667 22.3822C15.9021 22.5352 15.9628 22.6811 16.0462 22.8137H1.55979C1.44646 22.8137 1.33776 22.7683 1.25762 22.6873C1.17748 22.6064 1.13246 22.4966 1.13246 22.3822V6.77548C1.13246 6.68619 1.09733 6.60057 1.03483 6.53743C0.972316 6.4743 0.887535 6.43883 0.799135 6.43883C0.710734 6.43883 0.625967 6.4743 0.563458 6.53743C0.500949 6.60057 0.46582 6.68619 0.46582 6.77548V22.3649C0.46582 22.6614 0.582432 22.9457 0.789994 23.1553C0.997554 23.365 1.27907 23.4827 1.57261 23.4827H20.5972C20.9251 23.4923 21.2459 23.3858 21.5042 23.1817C21.7625 22.9775 21.942 22.6886 22.0117 22.3649L22.2168 21.4585C22.4933 21.4585 22.7585 21.3476 22.9541 21.1501C23.1496 20.9526 23.2595 20.6847 23.2595 20.4054V19.5422C23.2595 19.2625 23.1497 18.9942 22.9543 18.796C22.7589 18.5978 22.4937 18.4859 22.2168 18.4848L22.2253 18.5021ZM17.6102 17.3799C17.6102 17.3719 17.6134 17.3642 17.619 17.3585C17.6246 17.3529 17.6322 17.3497 17.6401 17.3497H20.2682C20.2761 17.3497 20.2837 17.3529 20.2893 17.3585C20.2949 17.3642 20.2981 17.3719 20.2981 17.3799V18.5021H17.6102V17.3799ZM21.3707 22.2311C21.3336 22.3985 21.2408 22.5481 21.1079 22.6549C20.975 22.7617 20.8098 22.8192 20.6399 22.8181H17.3025C17.1327 22.8192 16.9675 22.7617 16.8346 22.6549C16.7016 22.5481 16.6089 22.3985 16.5718 22.2311L16.4009 21.4715H21.5288L21.3707 22.2311ZM22.6185 20.4184C22.6174 20.5188 22.5774 20.6147 22.5071 20.6857C22.4368 20.7567 22.3418 20.7971 22.2424 20.7982H15.6915C15.5921 20.7971 15.4971 20.7567 15.4268 20.6857C15.3565 20.6147 15.3166 20.5188 15.3154 20.4184V19.5552C15.3154 19.454 15.3549 19.357 15.4253 19.2851C15.4957 19.2131 15.5914 19.1722 15.6915 19.1711H22.2253C22.2751 19.1711 22.3243 19.181 22.3702 19.2004C22.4161 19.2197 22.4578 19.2481 22.4928 19.2838C22.5277 19.3195 22.5553 19.3619 22.574 19.4085C22.5926 19.4551 22.6019 19.5049 22.6014 19.5552L22.6185 20.4184Z" fill="black"/>
</g>
<defs>
<clipPath id="clip0_3984_19324">
<rect width="23" height="23" fill="white" transform="translate(0.5 0.5)"/>
</clipPath>
</defs>
</svg>
