<svg width="196" height="196" viewBox="0 0 196 196" fill="none" xmlns="http://www.w3.org/2000/svg">
<g clip-path="url(#clip0_3477_111330)">
<path d="M47.0216 29.6024C47.0216 29.6024 45.4343 40.7435 31.8243 47.6992C17.3137 55.1175 27.631 77.4268 52.881 78.1779C80.3093 78.9943 95.2927 55.1066 74.7651 25.1721L47.0216 29.6024Z" fill="#3A1616"/>
<path d="M55.521 64.3265L55.6617 45.0977H67.8139L68.0728 64.5496L55.521 64.3265Z" fill="#D6906E"/>
<path d="M54.1247 50.7363C53.483 49.0327 58.3349 58.6226 63.3726 57.9967C67.6953 57.4525 68.4383 49.9417 68.4383 49.9417C68.4383 49.9417 66.4401 52.8045 61.8753 52.8099C56.7758 52.8154 54.1247 50.7363 54.1247 50.7363Z" fill="#3A1616"/>
<path d="M46.881 34.5008C48.4288 43.0729 53.5846 50.2844 61.8475 50.2844C70.1103 50.2844 75.7952 43.1491 76.814 34.5008C77.9397 24.7041 70.1159 18.875 61.8475 18.875C53.579 18.875 45.2937 25.6892 46.881 34.5008Z" fill="#3A1616"/>
<path d="M48.913 38.9638C48.5524 38.472 48.0247 38.1182 47.4219 37.964C46.8192 37.8098 46.1795 37.8651 45.6146 38.1202C43.3913 38.9366 44.3988 44.1561 47.731 44.8201C48.1061 44.8828 48.4909 44.8667 48.859 44.7728C49.2271 44.6788 49.5699 44.5094 49.8642 44.2758C49.8642 44.2758 49.0424 40.4279 48.913 38.9638Z" fill="#D6906E"/>
<path d="M46.0532 39.9435C46.0532 39.9435 47.9163 39.3394 49.239 41.9899" stroke="#161311" stroke-width="1.02" stroke-linecap="round" stroke-linejoin="round"/>
<path d="M74.4329 38.9639C74.7943 38.4729 75.3219 38.1197 75.9244 37.9657C76.5269 37.8116 77.1662 37.8663 77.7313 38.1203C79.9546 38.9367 78.9527 44.1562 75.6149 44.8202C75.2407 44.8831 74.8567 44.8671 74.4895 44.7732C74.1222 44.6792 73.7804 44.5096 73.4873 44.2759C73.4873 44.2759 74.3035 40.428 74.4329 38.9639Z" fill="#D6906E"/>
<path d="M77.2925 39.9435C77.2925 39.9435 75.4294 39.3394 74.1123 41.9899" stroke="#161311" stroke-width="1.02" stroke-linecap="round" stroke-linejoin="round"/>
<path d="M48.7044 34.4682C48.7044 37.81 49.059 44.1017 51.3048 48.2544C53.4099 52.1514 57.153 54.1325 61.7234 54.1379C66.2939 54.1434 70.3409 51.1771 72.142 47.8299C74.8663 42.7683 74.7368 34.5281 74.7368 34.5281C74.7368 34.5281 74.7368 22.5815 61.8641 22.5815C48.2992 22.5815 48.7044 34.4682 48.7044 34.4682Z" fill="#D6906E"/>
<path d="M58.8246 33.8913L51.7607 35.6547C51.7607 35.6547 52.0815 33.7389 54.969 33.0422C57.8565 32.3456 58.8246 33.8913 58.8246 33.8913Z" fill="#1A1A1A"/>
<path d="M63.311 33.8913L70.3749 35.6547C70.3749 35.6547 70.0541 33.7389 67.1666 33.0422C64.2791 32.3456 63.311 33.8913 63.311 33.8913Z" fill="#1A1A1A"/>
<path d="M60.6597 39.5408L60.3389 41.9845H62.1738" stroke="#161311" stroke-width="1.02" stroke-linecap="round" stroke-linejoin="round"/>
<path d="M66.6822 44.0527H56.3931C56.3931 44.0527 56.6914 47.7156 61.5151 47.7211C65.9561 47.732 66.6822 44.0527 66.6822 44.0527Z" fill="white"/>
<path d="M57.3611 37.8096C57.3611 37.8096 55.408 36.8471 53.7588 37.8096" stroke="#161311" stroke-width="1.02" stroke-linecap="round" stroke-linejoin="round"/>
<path d="M68.596 37.8096C68.596 37.8096 66.6428 36.8471 64.9937 37.8096" stroke="#161311" stroke-width="1.02" stroke-linecap="round" stroke-linejoin="round"/>
<path d="M74.4332 38.9637C74.4332 38.9637 71.0053 32.3945 73.3975 26.5491C73.3975 26.5491 75.784 26.5817 75.6996 35.7036L74.4332 38.9637Z" fill="#3A1616"/>
<path d="M48.9127 38.9637C48.9127 38.9637 52.3349 31.9808 49.9484 26.5491C49.9484 26.5491 47.5618 26.5817 47.6462 35.7036L48.9127 38.9637Z" fill="#3A1616"/>
<path d="M76.9379 31.6271C76.9379 31.6271 58.3634 30.5386 52.9824 23.2835C52.9824 23.2835 54.7442 18.7553 63.0127 20.018C71.2811 21.2807 76.9379 31.6271 76.9379 31.6271Z" fill="#3A1616"/>
<path d="M60.5806 21.4385C60.5806 21.4385 55.3292 31.9917 47.8149 31.638C47.8149 31.6162 51.9407 21.5201 60.5806 21.4385Z" fill="#3A1616"/>
<path d="M49.836 184.821C49.836 184.821 55.3464 158.386 58.5829 151.18C58.6496 151.037 58.7602 150.919 58.8996 150.84C59.0389 150.761 59.2001 150.725 59.3611 150.738C59.5221 150.751 59.6749 150.812 59.7986 150.913C59.9223 151.013 60.0108 151.148 60.052 151.299C60.8343 154.021 61.8644 162.141 61.4028 185.964V195.7H83.0336L86.4108 172.264C86.5853 170.468 93.531 141.095 76.0766 118.448H42.2149C42.2149 118.448 28.526 141.22 26.6348 169.064C26.2127 175.263 26.0719 184.728 25.1938 195.695H47.4101L49.836 184.821Z" fill="#DA291C"/>
<path d="M33.2933 67.7009C33.2933 67.7009 26.2013 68.6752 21.0117 85.8521L34.9876 93.597L43.2335 82.6301L33.2933 67.7009Z" fill="#1A1A1A"/>
<path d="M34.9874 93.6132C34.9874 93.6132 25.7058 107.688 23.505 110.219C21.2536 112.837 17.7807 114.132 14.7807 112.32C13.4757 111.531 12.5171 110.305 12.0882 108.877C11.6593 107.448 11.7902 105.916 12.456 104.575L22.0867 86.3909L34.9874 93.6132Z" fill="#D6906E"/>
<path d="M12.5741 67.7336L23.685 102.703L11.8368 107.683L4.71094 68.2561L12.5741 67.7336Z" fill="#D6906E"/>
<path d="M11.8144 69.4806L13.548 67.8478C14.8226 66.6629 15.6104 65.0717 15.7656 63.3686L16.2159 58.628C16.2159 58.628 16.4974 56.1299 11.3584 56.7612C6.2195 57.3925 5.92122 57.4143 5.97751 58.8893C5.97751 58.8893 6.91745 60.9357 10.2327 61.3493L11.8144 69.4806Z" fill="#D6906E"/>
<path d="M5.31324 70.2045C5.31324 70.2045 0.24745 67.4832 0.00541883 58.8947C-0.00783447 58.4072 0.107712 57.9244 0.34113 57.492C0.574548 57.0597 0.918125 56.692 1.3394 56.4238C2.6565 55.5856 6.4446 53.4793 8.48216 54.8236L12.0394 59.2703L11.8143 69.4806L5.31324 70.2045Z" fill="#D6906E"/>
<path d="M12.7715 57.7736L15.5858 43.933C15.6675 43.537 15.5845 43.1258 15.3548 42.7886C15.1251 42.4514 14.7672 42.2153 14.3588 42.1315V42.1315C13.9507 42.0469 13.5247 42.1212 13.1728 42.3382C12.821 42.5551 12.5717 42.8973 12.4788 43.2907L9.97973 53.7569L8.78083 53.9801L4.62691 43.3887C4.55819 43.2122 4.45328 43.051 4.31847 42.9147C4.18367 42.7784 4.02175 42.6699 3.84246 42.5957C3.66317 42.5214 3.47016 42.483 3.27513 42.4828C3.0801 42.4825 2.88704 42.5204 2.70753 42.5941V42.5941C2.39101 42.7263 2.13373 42.9634 1.98203 43.2628C1.83033 43.5621 1.7942 43.904 1.88014 44.2269L5.94962 58.8893L12.7715 57.7736Z" fill="#D6906E"/>
<path d="M13.0078 56.6741C13.0078 56.6741 6.03953 56.0318 5.97762 58.9056C5.97762 58.9056 5.83124 61.0826 10.2328 61.3656C9.41671 61.6208 8.70296 62.1152 8.19059 62.7804C7.67823 63.4455 7.39267 64.2483 7.37351 65.0775" stroke="#BF704F" stroke-miterlimit="10"/>
<path d="M19.8467 90.6143L22.7961 99.8994" stroke="#BF704F" stroke-miterlimit="10"/>
<path d="M80.9341 87.7787C80.9341 87.7787 91.9718 125.333 96.1933 156.775L103.308 155.469C103.308 155.469 102.222 109.375 95.0507 80.8611L80.9341 87.7787Z" fill="#D6906E"/>
<path d="M103.251 153.89C103.251 153.89 113.946 169.173 101.107 176.042C100.695 176.261 100.218 176.336 99.7555 176.255C99.2931 176.174 98.8739 175.941 98.5684 175.595L98.4839 175.503C98.1557 175.122 97.9874 174.636 98.0125 174.141C98.0375 173.646 98.254 173.178 98.619 172.831C100.448 171.04 102.902 167.333 98.9905 162.49C98.9905 162.49 96.9361 162.996 97.3019 166.936C97.3243 167.174 97.2924 167.414 97.2084 167.639C97.1245 167.863 96.9906 168.067 96.8161 168.237C96.6416 168.406 96.4309 168.536 96.1988 168.618C95.9666 168.7 95.7188 168.731 95.4726 168.71V168.71C95.1238 168.678 94.7939 168.542 94.5286 168.321C94.2634 168.1 94.076 167.804 93.9923 167.475C93.3225 164.879 92.208 158.435 96.5027 154.957L103.251 153.89Z" fill="#D6906E"/>
<path d="M87.7334 70.8467C87.7334 70.8467 97.8649 74.0687 99.666 89.5421L83.1685 95.5943L79.4536 85.7976L87.7334 70.8467Z" fill="#1A1A1A"/>
<path d="M77.9791 67.2601L87.8911 70.8849L76.0991 114.007H42.2373L33.2935 67.7119L45.0348 65.0776L77.9791 67.2601Z" fill="#1A1A1A"/>
<path d="M76.0991 114.007H42.2373V118.443H76.0991V114.007Z" fill="#A51411"/>
<path d="M64.9488 62.2583L77.9847 67.2873C77.9847 67.2873 76.4706 72.2455 61.172 72.2455C47.8434 72.2455 45.0347 65.0994 45.0347 65.0994L57.6991 62.2583H64.9488Z" fill="#D6906E"/>
<path d="M150.346 125.894L164.525 196H137.046L126.509 149.667L124.089 149.525L124.049 196H96.6548L98.0507 125.894H150.346Z" fill="#1A1A1A"/>
<path d="M162.977 76.6921L188.835 70.3025C191.313 69.6322 193.42 68.0488 194.704 65.8923C195.988 63.7359 196.346 61.1785 195.701 58.7695V58.7695C195.373 57.5447 194.794 56.3957 193.999 55.3902C193.205 54.3846 192.21 53.5428 191.075 52.914C189.939 52.2853 188.685 51.8824 187.385 51.729C186.086 51.5756 184.769 51.6747 183.51 52.0207L157.618 59.1287L162.977 76.6921Z" fill="#E8ABA2"/>
<path d="M165.825 54.5786L140.569 57.7843L147.791 82.7116L171.909 77.8567L165.825 54.5786Z" fill="#DA291C"/>
<path d="M177.882 23.5393C178.529 19.6206 176.959 14.6134 176.959 14.6134L177.521 5.82354C177.576 5.42369 177.476 5.01839 177.24 4.68575C177.004 4.35312 176.649 4.11669 176.244 4.02203V4.02203C176.028 3.9692 175.803 3.95832 175.582 3.99001C175.361 4.0217 175.149 4.09533 174.958 4.20666C174.767 4.31799 174.601 4.46481 174.469 4.63863C174.337 4.81246 174.242 5.00985 174.189 5.21941L173.429 10.8797H172.625L171.533 1.75245C171.512 1.49297 171.436 1.24047 171.309 1.01097C171.182 0.781461 171.007 0.579968 170.795 0.419274C170.584 0.25858 170.34 0.142193 170.079 0.0774984C169.818 0.0128042 169.547 0.0012153 169.281 0.043468V0.043468C168.826 0.12377 168.415 0.358737 168.123 0.706014C167.831 1.05329 167.677 1.49003 167.688 1.9375L168.409 11.8159L167.581 11.9737L164.688 2.128C164.614 1.85736 164.484 1.60405 164.306 1.38335C164.127 1.16265 163.905 0.979129 163.651 0.843847C163.398 0.708565 163.119 0.624326 162.831 0.596211C162.543 0.568095 162.251 0.596685 161.975 0.680256V0.680256C161.459 0.837958 161.023 1.17865 160.756 1.63394C160.489 2.08923 160.41 2.62542 160.534 3.13488L163.523 14.4066L162.47 14.6841L158.53 6.76512C158.423 6.54817 158.271 6.3554 158.082 6.19929C157.893 6.04319 157.672 5.92725 157.434 5.85899C157.195 5.79073 156.945 5.77169 156.698 5.80309C156.452 5.83448 156.215 5.91563 156.003 6.04125V6.04125C155.653 6.24637 155.387 6.56193 155.25 6.93473C155.112 7.30753 155.112 7.71474 155.249 8.08768L159.228 18.6192L155.936 18.5375C155.571 18.5388 155.211 18.6137 154.878 18.7577C154.545 18.9016 154.248 19.1113 154.004 19.3733C153.76 19.6353 153.575 19.9437 153.462 20.2787C153.349 20.6138 153.31 20.9681 153.346 21.3187V21.3187C153.4 21.8286 153.614 22.3104 153.959 22.6995C154.304 23.0886 154.764 23.3664 155.277 23.4958L159.611 24.5135C161.633 27.0314 164.318 28.9771 167.384 30.1467C167.384 30.1467 177.386 26.5273 177.882 23.5393Z" fill="#E8ABA2"/>
<path d="M159.217 18.6084C159.217 18.6084 165.504 18.2492 169.236 21.6781" stroke="#D8857D" stroke-miterlimit="10"/>
<path d="M195.341 57.7299L177.881 23.5393L166.86 28.024L177.966 65.638L195.341 57.7299Z" fill="#E8ABA2"/>
<path d="M174.662 54.4426L176.368 60.2336" stroke="#D8857D" stroke-miterlimit="10"/>
<path d="M117.998 56.4346L97.3301 60.571L98.0505 125.893H150.346L151.99 58.7803L132.312 57.1312L117.998 56.4346Z" fill="#DA291C"/>
<path d="M104.923 75.9355H117.728V82.1292C117.728 83.7719 117.053 85.3473 115.852 86.5089C114.651 87.6704 113.022 88.323 111.323 88.323C109.624 88.323 107.995 87.6704 106.794 86.5089C105.592 85.3473 104.917 83.7719 104.917 82.1292V75.9355H104.923Z" fill="#A51411"/>
<path d="M82.3414 77.1711L67.4311 103.296C66.1766 105.492 65.8629 108.076 66.5575 110.493C67.2522 112.91 68.8997 114.967 71.146 116.222V116.222C73.3679 117.462 76.0005 117.821 78.4904 117.223C80.9802 116.626 83.1334 115.117 84.4972 113.016L99.9759 89.134L82.3414 77.1711Z" fill="#E8ABA2"/>
<path d="M77.7144 80.8068L99.1031 94.0759L102.531 78.227C106.156 72.5721 110.754 65.7525 104.968 62.1658C103.574 61.3018 102.018 60.7121 100.388 60.4305C98.758 60.1489 97.0867 60.1809 95.4696 60.5247C93.8525 60.8685 92.3215 61.5173 90.964 62.4339C89.6066 63.3506 88.4494 64.5171 87.5588 65.8667L77.7144 80.8068Z" fill="#DA291C"/>
<path d="M74.7594 117.403L113.906 116.369L116.597 104.134L72.356 98.7239L74.7594 117.403Z" fill="#E8ABA2"/>
<path d="M92.1798 101.14L81.9863 99.8994" stroke="#D8857D" stroke-miterlimit="10"/>
<path d="M113.997 104.64C113.997 104.64 119.006 98.1087 124.899 104.613L122.558 109.114L113.997 104.64Z" fill="#E8ABA2"/>
<path d="M119.896 97.6953L118.348 106.855L130.292 108.145L132.188 99.3444C132.236 99.1197 132.235 98.888 132.185 98.6637C132.136 98.4394 132.039 98.2276 131.9 98.0414C131.762 97.8553 131.585 97.6989 131.38 97.5822C131.176 97.4655 130.949 97.391 130.714 97.3633L121.787 96.3238C121.349 96.2676 120.905 96.3797 120.552 96.6361C120.198 96.8926 119.962 97.2728 119.896 97.6953Z" fill="#1A1A1A"/>
<path d="M116.524 103.856L130.652 104.199C131.439 104.218 132.188 104.533 132.738 105.078C133.288 105.623 133.596 106.355 133.596 107.117V107.117C133.599 107.664 133.442 108.201 133.143 108.666C132.845 109.131 132.416 109.505 131.907 109.745L131.153 110.099C131.153 110.099 132.594 120.44 124.106 121.676C115.618 122.911 110.856 116.423 110.856 116.423L116.524 103.856Z" fill="#E8ABA2"/>
<path d="M133.094 57.1584L132.903 36.5254H117.407L117.064 56.6196L133.094 57.1584Z" fill="#E8ABA2"/>
<path d="M116.135 42.5504C115.33 40.7707 121.511 52.4233 127.826 51.7648C133.246 51.2205 133.455 41.7231 133.455 41.7231C133.455 41.7231 131.535 44.7166 125.817 44.722C119.456 44.7329 116.135 42.5504 116.135 42.5504Z" fill="#1A1A1A"/>
<path d="M141.149 25.1504C139.494 34.3485 133.961 42.0879 125.096 42.0879C116.231 42.0879 110.147 34.4355 109.021 25.1504C107.777 14.6135 116.209 7.61426 125.074 7.61426C133.939 7.61426 142.855 15.7075 141.149 25.1504Z" fill="#1A1A1A"/>
<path d="M138.971 29.9453C139.36 29.4199 139.928 29.0433 140.575 28.8812C141.222 28.7191 141.907 28.7817 142.511 29.0581C144.898 29.9344 143.817 35.5294 140.26 36.2479C139.857 36.3154 139.444 36.2984 139.049 36.1979C138.653 36.0974 138.285 35.9158 137.969 35.6655C137.969 35.6655 138.852 31.5128 138.971 29.9453Z" fill="#E8ABA2"/>
<path d="M142.038 31.0175C142.038 31.0175 140.04 30.3753 138.627 33.1946" stroke="#161311" stroke-width="1.1" stroke-linecap="round" stroke-linejoin="round"/>
<path d="M111.593 29.9453C111.206 29.4171 110.64 29.0373 109.992 28.8721C109.345 28.707 108.659 28.767 108.053 29.0418C105.666 29.9181 106.747 35.5131 110.304 36.2315C110.707 36.2991 111.12 36.2821 111.515 36.1816C111.91 36.0811 112.279 35.8995 112.595 35.6492C112.595 35.6492 111.734 31.5128 111.593 29.9453Z" fill="#E8ABA2"/>
<path d="M108.525 31.0175C108.525 31.0175 110.524 30.3753 111.942 33.1946" stroke="#161311" stroke-width="1.1" stroke-linecap="round" stroke-linejoin="round"/>
<path d="M139.196 25.1232C139.196 28.7099 138.813 36.2153 136.41 40.6728C134.158 44.8527 130.415 47.106 125.518 47.242C121.612 47.3454 115.984 43.8077 114.047 40.2156C111.126 34.773 111.267 25.1885 111.267 25.1885C111.267 25.1885 111.267 12.3711 125.079 12.3711C139.629 12.3711 139.196 25.1232 139.196 25.1232Z" fill="#E8ABA2"/>
<path d="M120.402 29.4665C120.402 29.6712 120.339 29.8714 120.221 30.0416C120.104 30.2117 119.936 30.3443 119.741 30.4224C119.545 30.5005 119.33 30.5207 119.122 30.4803C118.914 30.44 118.724 30.3409 118.574 30.1958C118.425 30.0506 118.324 29.8658 118.283 29.6649C118.242 29.4639 118.264 29.2558 118.346 29.067C118.428 28.8781 118.566 28.717 118.743 28.604C118.919 28.491 119.126 28.4313 119.338 28.4324C119.478 28.4324 119.617 28.4592 119.747 28.5112C119.876 28.5632 119.994 28.6395 120.092 28.7356C120.191 28.8317 120.27 28.9457 120.323 29.0712C120.376 29.1966 120.403 29.3309 120.402 29.4665V29.4665Z" fill="#1A1A1A"/>
<path d="M131.44 29.4665C131.44 29.671 131.377 29.8709 131.259 30.041C131.142 30.211 130.975 30.3436 130.779 30.4219C130.584 30.5001 130.369 30.5206 130.162 30.4807C129.954 30.4408 129.764 30.3423 129.614 30.1977C129.464 30.0531 129.363 29.8688 129.321 29.6682C129.28 29.4676 129.301 29.2597 129.382 29.0707C129.463 28.8818 129.6 28.7203 129.776 28.6067C129.952 28.493 130.159 28.4324 130.37 28.4324C130.654 28.4324 130.926 28.5413 131.126 28.7353C131.327 28.9292 131.44 29.1922 131.44 29.4665V29.4665Z" fill="#1A1A1A"/>
<path d="M122.226 25.2483L114.649 27.1532C114.649 27.1532 114.993 25.1013 118.094 24.3557C121.195 23.61 122.226 25.2483 122.226 25.2483Z" fill="#1A1A1A"/>
<path d="M127.032 25.2485L134.608 27.1371C134.608 27.1371 134.265 25.0852 131.164 24.3396C128.062 23.5939 127.032 25.2485 127.032 25.2485Z" fill="#1A1A1A"/>
<path d="M123.852 32.0842V34.7021H125.816" stroke="#161311" stroke-width="1.1" stroke-linecap="round" stroke-linejoin="round"/>
<path d="M131.029 36.9065H119.434C119.434 36.9065 119.754 39.8564 124.933 39.8673C129.7 39.8727 131.029 36.9065 131.029 36.9065Z" fill="white"/>
<path d="M111.593 29.9453C111.593 29.9453 116.766 22.2712 112.719 16.6272C112.719 16.6272 110.158 16.6653 110.248 26.4239L111.593 29.9453Z" fill="#1A1A1A"/>
<path d="M138.971 29.9453C138.971 29.9453 133.798 22.2712 137.845 16.6272C137.845 16.6272 140.406 16.6653 140.316 26.4239L138.971 29.9453Z" fill="#1A1A1A"/>
<path d="M111.323 16.2571C111.323 16.2571 118.026 23.5611 131.76 22.1297C144.048 20.8507 145.111 12.5181 142.185 9.22526C138.008 4.52283 128.783 6.26991 123.858 11.5275L111.323 16.2571Z" fill="#1A1A1A"/>
<path d="M117.064 56.6196L125.231 66.7756L133.094 57.1584L117.064 56.6196Z" fill="#E8ABA2"/>
<path d="M117.064 55.1882L112.24 57.583L117.689 68.1417L123.132 64.174L117.064 55.1882Z" fill="#A51411"/>
<path d="M133.134 55.1882L138.56 57.6537L132.83 68.1417L127.426 64.0543L133.134 55.1882Z" fill="#A51411"/>
</g>
<defs>
<clipPath id="clip0_3477_111330">
<rect width="196" height="196" fill="white"/>
</clipPath>
</defs>
</svg>
